<?xml version="1.0" encoding="utf-8" standalone="no"?>
<!DOCTYPE svg PUBLIC "-//W3C//DTD SVG 1.1//EN"
  "http://www.w3.org/Graphics/SVG/1.1/DTD/svg11.dtd">
<!-- Created with matplotlib (http://matplotlib.org/) -->
<svg height="345pt" version="1.1" viewBox="0 0 460 345" width="460pt" xmlns="http://www.w3.org/2000/svg" xmlns:xlink="http://www.w3.org/1999/xlink">
 <defs>
  <style type="text/css">
*{stroke-linecap:butt;stroke-linejoin:round;}
  </style>
 </defs>
 <g id="figure_1">
  <g id="patch_1">
   <path d="M 0 345.6 
L 460.8 345.6 
L 460.8 0 
L 0 0 
z
" style="fill:#ffffff;"/>
  </g>
  <g id="axes_1">
   <g id="patch_2">
    <path d="M 57.6 307.584 
L 414.72 307.584 
L 414.72 41.472 
L 57.6 41.472 
z
" style="fill:#ffffff;"/>
   </g>
   <g id="matplotlib.axis_1">
    <g id="xtick_1">
     <g id="line2d_1">
      <defs>
       <path d="M 0 0 
L 0 3.5 
" id="mf8944da8b8" style="stroke:#000000;stroke-width:0.8;"/>
      </defs>
      <g>
       <use style="stroke:#000000;stroke-width:0.8;" x="73.832727" xlink:href="#mf8944da8b8" y="307.584"/>
      </g>
     </g>
     <g id="text_1">
      <text style="font-family:DejaVu Sans;font-size:10px;font-style:normal;font-weight:400;text-anchor:middle;" transform="rotate(-0, 73.832727, 322.182437)" x="73.832727" y="322.182437">12</text>
     </g>
    </g>
    <g id="xtick_2">
     <g id="line2d_2">
      <g>
       <use style="stroke:#000000;stroke-width:0.8;" x="114.414545" xlink:href="#mf8944da8b8" y="307.584"/>
      </g>
     </g>
     <g id="text_2">
      <text style="font-family:DejaVu Sans;font-size:10px;font-style:normal;font-weight:400;text-anchor:middle;" transform="rotate(-0, 114.414545, 322.182437)" x="114.414545" y="322.182437">14</text>
     </g>
    </g>
    <g id="xtick_3">
     <g id="line2d_3">
      <g>
       <use style="stroke:#000000;stroke-width:0.8;" x="154.996364" xlink:href="#mf8944da8b8" y="307.584"/>
      </g>
     </g>
     <g id="text_3">
      <text style="font-family:DejaVu Sans;font-size:10px;font-style:normal;font-weight:400;text-anchor:middle;" transform="rotate(-0, 154.996364, 322.182437)" x="154.996364" y="322.182437">16</text>
     </g>
    </g>
    <g id="xtick_4">
     <g id="line2d_4">
      <g>
       <use style="stroke:#000000;stroke-width:0.8;" x="195.578182" xlink:href="#mf8944da8b8" y="307.584"/>
      </g>
     </g>
     <g id="text_4">
      <text style="font-family:DejaVu Sans;font-size:10px;font-style:normal;font-weight:400;text-anchor:middle;" transform="rotate(-0, 195.578182, 322.182437)" x="195.578182" y="322.182437">18</text>
     </g>
    </g>
    <g id="xtick_5">
     <g id="line2d_5">
      <g>
       <use style="stroke:#000000;stroke-width:0.8;" x="236.16" xlink:href="#mf8944da8b8" y="307.584"/>
      </g>
     </g>
     <g id="text_5">
      <text style="font-family:DejaVu Sans;font-size:10px;font-style:normal;font-weight:400;text-anchor:middle;" transform="rotate(-0, 236.16, 322.182437)" x="236.16" y="322.182437">20</text>
     </g>
    </g>
    <g id="xtick_6">
     <g id="line2d_6">
      <g>
       <use style="stroke:#000000;stroke-width:0.8;" x="276.741818" xlink:href="#mf8944da8b8" y="307.584"/>
      </g>
     </g>
     <g id="text_6">
      <text style="font-family:DejaVu Sans;font-size:10px;font-style:normal;font-weight:400;text-anchor:middle;" transform="rotate(-0, 276.741818, 322.182437)" x="276.741818" y="322.182437">22</text>
     </g>
    </g>
    <g id="xtick_7">
     <g id="line2d_7">
      <g>
       <use style="stroke:#000000;stroke-width:0.8;" x="317.323636" xlink:href="#mf8944da8b8" y="307.584"/>
      </g>
     </g>
     <g id="text_7">
      <text style="font-family:DejaVu Sans;font-size:10px;font-style:normal;font-weight:400;text-anchor:middle;" transform="rotate(-0, 317.323636, 322.182437)" x="317.323636" y="322.182437">24</text>
     </g>
    </g>
    <g id="xtick_8">
     <g id="line2d_8">
      <g>
       <use style="stroke:#000000;stroke-width:0.8;" x="357.905455" xlink:href="#mf8944da8b8" y="307.584"/>
      </g>
     </g>
     <g id="text_8">
      <text style="font-family:DejaVu Sans;font-size:10px;font-style:normal;font-weight:400;text-anchor:middle;" transform="rotate(-0, 357.905455, 322.182437)" x="357.905455" y="322.182437">26</text>
     </g>
    </g>
    <g id="xtick_9">
     <g id="line2d_9">
      <g>
       <use style="stroke:#000000;stroke-width:0.8;" x="398.487273" xlink:href="#mf8944da8b8" y="307.584"/>
      </g>
     </g>
     <g id="text_9">
      <text style="font-family:DejaVu Sans;font-size:10px;font-style:normal;font-weight:400;text-anchor:middle;" transform="rotate(-0, 398.487273, 322.182437)" x="398.487273" y="322.182437">28</text>
     </g>
    </g>
    <g id="text_10">
     <text style="font-family:DejaVu Sans;font-size:10px;font-style:normal;font-weight:400;text-anchor:middle;" transform="rotate(-0, 236.16, 335.860562)" x="236.16" y="335.860562">frequency (MHz)</text>
    </g>
   </g>
   <g id="matplotlib.axis_2">
    <g id="ytick_1">
     <g id="line2d_10">
      <defs>
       <path d="M 0 0 
L -3.5 0 
" id="m75f0cb0d2e" style="stroke:#000000;stroke-width:0.8;"/>
      </defs>
      <g>
       <use style="stroke:#000000;stroke-width:0.8;" x="57.6" xlink:href="#m75f0cb0d2e" y="295.494329"/>
      </g>
     </g>
     <g id="text_11">
      <text style="font-family:DejaVu Sans;font-size:10px;font-style:normal;font-weight:400;text-anchor:end;" transform="rotate(-0, 50.6, 299.293548)" x="50.6" y="299.293548">0.0</text>
     </g>
    </g>
    <g id="ytick_2">
     <g id="line2d_11">
      <g>
       <use style="stroke:#000000;stroke-width:0.8;" x="57.6" xlink:href="#m75f0cb0d2e" y="247.109063"/>
      </g>
     </g>
     <g id="text_12">
      <text style="font-family:DejaVu Sans;font-size:10px;font-style:normal;font-weight:400;text-anchor:end;" transform="rotate(-0, 50.6, 250.908282)" x="50.6" y="250.908282">0.2</text>
     </g>
    </g>
    <g id="ytick_3">
     <g id="line2d_12">
      <g>
       <use style="stroke:#000000;stroke-width:0.8;" x="57.6" xlink:href="#m75f0cb0d2e" y="198.723797"/>
      </g>
     </g>
     <g id="text_13">
      <text style="font-family:DejaVu Sans;font-size:10px;font-style:normal;font-weight:400;text-anchor:end;" transform="rotate(-0, 50.6, 202.523016)" x="50.6" y="202.523016">0.4</text>
     </g>
    </g>
    <g id="ytick_4">
     <g id="line2d_13">
      <g>
       <use style="stroke:#000000;stroke-width:0.8;" x="57.6" xlink:href="#m75f0cb0d2e" y="150.338531"/>
      </g>
     </g>
     <g id="text_14">
      <text style="font-family:DejaVu Sans;font-size:10px;font-style:normal;font-weight:400;text-anchor:end;" transform="rotate(-0, 50.6, 154.13775)" x="50.6" y="154.13775">0.6</text>
     </g>
    </g>
    <g id="ytick_5">
     <g id="line2d_14">
      <g>
       <use style="stroke:#000000;stroke-width:0.8;" x="57.6" xlink:href="#m75f0cb0d2e" y="101.953266"/>
      </g>
     </g>
     <g id="text_15">
      <text style="font-family:DejaVu Sans;font-size:10px;font-style:normal;font-weight:400;text-anchor:end;" transform="rotate(-0, 50.6, 105.752484)" x="50.6" y="105.752484">0.8</text>
     </g>
    </g>
    <g id="ytick_6">
     <g id="line2d_15">
      <g>
       <use style="stroke:#000000;stroke-width:0.8;" x="57.6" xlink:href="#m75f0cb0d2e" y="53.568"/>
      </g>
     </g>
     <g id="text_16">
      <text style="font-family:DejaVu Sans;font-size:10px;font-style:normal;font-weight:400;text-anchor:end;" transform="rotate(-0, 50.6, 57.367219)" x="50.6" y="57.367219">1.0</text>
     </g>
    </g>
    <g id="text_17">
     <text style="font-family:DejaVu Sans;font-size:10px;font-style:normal;font-weight:400;text-anchor:middle;" transform="rotate(-90, 28.617187, 174.528)" x="28.617187" y="174.528">amplitude^2 (a.u.)</text>
    </g>
   </g>
   <g id="line2d_16">
    <path clip-path="url(#p1d22da5b71)" d="M 73.832727 56.624654 
L 74.807016 59.430052 
L 77.296864 66.975206 
L 77.946389 68.246319 
L 78.487661 68.90957 
L 78.920678 69.15222 
L 79.353695 69.127203 
L 79.786712 68.832769 
L 80.327983 68.097384 
L 80.977509 66.722676 
L 81.843543 64.222821 
L 84.766408 55.069076 
L 85.415934 54.009251 
L 85.848951 53.649018 
L 86.281968 53.576807 
L 86.714985 53.78542 
L 87.148002 54.253369 
L 87.797528 55.36365 
L 88.771816 57.622173 
L 90.287376 61.18734 
L 91.045156 62.40507 
L 91.586427 62.894198 
L 92.019444 63.027412 
L 92.452461 62.923748 
L 92.885478 62.587573 
L 93.42675 61.864098 
L 94.184529 60.38381 
L 95.591835 56.928808 
L 96.566123 54.823997 
L 97.215649 53.915812 
L 97.648666 53.61633 
L 98.081683 53.592641 
L 98.5147 53.85469 
L 98.947717 54.396516 
L 99.488988 55.432907 
L 100.246768 57.415439 
L 102.953125 65.103791 
L 103.494396 65.926779 
L 103.927413 66.280314 
L 104.36043 66.342749 
L 104.793448 66.107963 
L 105.226465 65.582035 
L 105.767736 64.544699 
L 106.525516 62.505721 
L 109.231872 54.39702 
L 109.66489 53.795763 
L 109.989652 53.588245 
L 110.314415 53.60739 
L 110.639178 53.862203 
L 111.072195 54.570604 
L 111.613466 56.022034 
L 112.262992 58.482608 
L 113.23728 63.162845 
L 115.077603 72.117179 
L 115.835383 74.710428 
L 116.376654 75.910829 
L 116.809671 76.429952 
L 117.134434 76.549805 
L 117.459197 76.435563 
L 117.78396 76.088796 
L 118.216977 75.275048 
L 118.758248 73.730128 
L 119.516028 70.728381 
L 120.59857 65.347244 
L 122.11413 57.907034 
L 122.87191 55.268284 
L 123.413181 54.099159 
L 123.846198 53.639742 
L 124.170961 53.573429 
L 124.495724 53.734711 
L 124.928741 54.271464 
L 125.470012 55.370217 
L 126.336047 57.743126 
L 127.635098 61.320214 
L 128.284623 62.525832 
L 128.71764 62.97793 
L 129.150657 63.109711 
L 129.47542 62.989864 
L 129.908437 62.541725 
L 130.449709 61.55215 
L 131.207489 59.53564 
L 133.047811 54.291218 
L 133.480828 53.696457 
L 133.805591 53.56909 
L 134.130354 53.761823 
L 134.455117 54.307472 
L 134.888134 55.620068 
L 135.429405 58.217877 
L 136.078931 62.648328 
L 136.944965 70.292168 
L 139.651321 95.741467 
L 140.409101 100.460249 
L 140.950373 102.728501 
L 141.38339 103.823791 
L 141.708152 104.210336 
L 141.924661 104.257839 
L 142.141169 104.136386 
L 142.465932 103.63782 
L 142.898949 102.388678 
L 143.440221 99.91674 
L 144.089746 95.709048 
L 144.95578 88.331248 
L 146.579594 71.769875 
L 147.662137 61.88086 
L 148.419917 56.969953 
L 148.961188 54.782129 
L 149.394205 53.842843 
L 149.718968 53.579637 
L 150.043731 53.651624 
L 150.368494 54.007378 
L 150.909765 55.066011 
L 152.858342 59.478891 
L 153.291359 59.822656 
L 153.616122 59.828254 
L 153.940885 59.611879 
L 154.373902 58.994734 
L 154.915173 57.783443 
L 156.538987 53.781332 
L 156.86375 53.568239 
L 157.080258 53.659622 
L 157.296767 53.972366 
L 157.62153 54.915443 
L 158.054547 57.173572 
L 158.487564 60.679889 
L 159.028835 66.846812 
L 159.786615 78.43454 
L 161.085666 102.919867 
L 162.601226 130.290379 
L 163.46726 142.352789 
L 164.22504 150.088802 
L 164.874565 154.506526 
L 165.307583 156.298539 
L 165.632345 157.03277 
L 165.848854 157.230255 
L 166.065362 157.192845 
L 166.281871 156.919194 
L 166.606634 156.062292 
L 167.039651 154.076883 
L 167.580922 150.219167 
L 168.230448 143.543432 
L 168.988228 132.961006 
L 169.854262 117.535322 
L 172.668873 63.725249 
L 173.210144 58.012848 
L 173.643161 55.207673 
L 173.967924 54.053402 
L 174.292687 53.592163 
L 174.509195 53.599513 
L 174.833958 53.96441 
L 175.375229 55.109544 
L 176.133009 56.680907 
L 176.566026 57.073559 
L 176.890789 57.015507 
L 177.215552 56.649077 
L 177.648569 55.763877 
L 178.622857 53.639122 
L 178.839366 53.581655 
L 179.055874 53.859767 
L 179.272383 54.570892 
L 179.597146 56.661875 
L 179.921909 60.246834 
L 180.354926 67.725939 
L 180.896197 81.596034 
L 181.653977 107.892727 
L 183.710808 183.205091 
L 184.576842 205.272449 
L 185.334622 219.214676 
L 186.092402 229.006021 
L 186.741927 234.696909 
L 187.283199 237.821992 
L 187.716216 239.364324 
L 188.040979 239.986858 
L 188.365741 240.154881 
L 188.58225 240.010575 
L 188.907013 239.395986 
L 189.231775 238.276769 
L 189.664793 235.921997 
L 190.206064 231.371228 
L 190.747335 224.619557 
L 191.288607 215.037463 
L 191.829878 201.787227 
L 192.479403 179.699119 
L 193.237183 144.235031 
L 194.752743 67.900244 
L 195.18576 57.460826 
L 195.510523 54.167479 
L 195.727031 53.576991 
L 195.835286 53.608739 
L 196.051794 54.056713 
L 196.484811 55.158578 
L 196.70132 55.257294 
L 196.917828 54.908227 
L 197.4591 53.577305 
L 197.567354 53.835899 
L 197.783862 55.937398 
L 198.000371 61.362446 
L 198.325134 78.759486 
L 198.758151 120.963631 
L 199.732439 226.654833 
L 200.273711 258.425755 
L 200.706728 272.646845 
L 201.139745 281.067021 
L 201.572762 286.128542 
L 202.114033 289.824434 
L 202.655304 291.925529 
L 203.196576 293.168887 
L 203.737847 293.932037 
L 204.387373 294.490049 
L 205.253407 294.907425 
L 206.444204 295.190044 
L 208.284526 295.36618 
L 212.073426 295.46105 
L 226.471243 295.487259 
L 234.482059 295.379442 
L 235.239839 295.168488 
L 235.564602 294.836006 
L 235.78111 294.218313 
L 235.889364 293.51958 
L 235.997619 292.041938 
L 236.105873 288.011791 
L 236.214127 269.510731 
L 236.322381 60.183539 
L 236.53889 287.061044 
L 236.755398 293.394318 
L 236.971907 294.564816 
L 237.29667 295.081857 
L 237.729687 295.296068 
L 238.595721 295.417127 
L 241.302078 295.476288 
L 259.055777 295.471858 
L 264.901508 295.327797 
L 266.74183 295.077064 
L 267.824373 294.708291 
L 268.582153 294.206047 
L 269.123424 293.604989 
L 269.664696 292.643093 
L 270.097713 291.438765 
L 270.53073 289.592274 
L 270.963747 286.686815 
L 271.396764 281.991332 
L 271.829781 274.211441 
L 272.262798 261.098033 
L 272.695815 239.080193 
L 273.128832 203.964647 
L 274.644392 60.078243 
L 274.969155 54.242913 
L 275.185663 53.569388 
L 275.402172 54.007407 
L 275.835189 55.191504 
L 276.051697 55.241814 
L 276.268206 54.87503 
L 276.809477 53.580173 
L 276.917731 53.606176 
L 277.13424 54.361013 
L 277.350748 56.394899 
L 277.675511 62.556969 
L 278.108528 77.22674 
L 278.758054 109.899233 
L 280.057105 176.357046 
L 280.814885 202.426565 
L 281.464411 217.5765 
L 282.113936 227.779206 
L 282.763462 234.348423 
L 283.304733 237.703977 
L 283.73775 239.249377 
L 284.062513 239.817657 
L 284.279021 239.931902 
L 284.49553 239.840765 
L 284.820293 239.324489 
L 285.145056 238.352241 
L 285.578073 236.327921 
L 286.119344 232.55052 
L 286.660615 227.229711 
L 287.310141 218.473009 
L 287.959667 206.645783 
L 288.717446 188.26788 
L 289.583481 160.746653 
L 292.289837 67.111511 
L 292.831109 58.5428 
L 293.264126 54.970406 
L 293.588888 53.805787 
L 293.805397 53.572951 
L 294.021905 53.662345 
L 294.346668 54.202805 
L 295.645719 56.928838 
L 295.970482 57.067814 
L 296.295245 56.898029 
L 296.728262 56.253465 
L 298.135568 53.588776 
L 298.352076 53.604098 
L 298.568585 53.866657 
L 298.893347 54.817295 
L 299.21811 56.541491 
L 299.651127 60.176415 
L 300.192399 66.910944 
L 300.950179 79.860018 
L 304.089552 139.275367 
L 304.847332 148.059609 
L 305.496858 153.178396 
L 306.038129 155.762904 
L 306.471146 156.750477 
L 306.687655 156.889087 
L 306.904163 156.792893 
L 307.228926 156.210974 
L 307.553689 155.106814 
L 307.986706 152.826897 
L 308.527977 148.688692 
L 309.177503 141.866122 
L 309.935283 131.475697 
L 310.909571 114.869428 
L 313.507673 68.122283 
L 314.157199 60.57726 
L 314.69847 56.445302 
L 315.131487 54.512845 
L 315.45625 53.779365 
L 315.781013 53.568413 
L 315.997522 53.670634 
L 316.322284 54.112306 
L 316.863556 55.363444 
L 318.270861 58.943303 
L 318.703878 59.551025 
L 319.136895 59.784502 
L 319.461658 59.703654 
L 319.894675 59.270348 
L 320.435947 58.284269 
L 321.410235 55.839919 
L 322.168015 54.166405 
L 322.601032 53.648352 
L 322.925795 53.580473 
L 323.250557 53.84471 
L 323.57532 54.480471 
L 324.008337 55.947844 
L 324.549609 58.792268 
L 325.199134 63.565966 
L 326.173423 72.734913 
L 328.338508 93.769247 
L 329.096288 99.02228 
L 329.745813 102.102124 
L 330.178831 103.355522 
L 330.503593 103.860417 
L 330.828356 103.988142 
L 331.044865 103.863691 
L 331.369627 103.364908 
L 331.802645 102.127599 
L 332.343916 99.697909 
L 332.993441 95.592101 
L 333.859476 88.443558 
L 335.48329 72.445796 
L 336.565832 62.725828 
L 337.323612 57.689951 
L 337.864883 55.285921 
L 338.297901 54.121111 
L 338.622663 53.676504 
L 338.947426 53.573126 
L 339.272189 53.775938 
L 339.705206 54.447227 
L 340.246477 55.764029 
L 342.628071 62.242502 
L 343.169343 62.866793 
L 343.60236 63.001692 
L 343.927122 62.886884 
L 344.360139 62.457118 
L 344.901411 61.52041 
L 345.659191 59.64394 
L 347.607767 54.493389 
L 348.149039 53.754962 
L 348.473802 53.578105 
L 348.798564 53.624864 
L 349.123327 53.90629 
L 349.556344 54.650673 
L 350.097616 56.148706 
L 350.747141 58.663506 
L 351.829684 63.961067 
L 353.453498 71.845629 
L 354.211278 74.476959 
L 354.752549 75.707721 
L 355.185566 76.253802 
L 355.510329 76.396019 
L 355.835092 76.30644 
L 356.159854 75.987006 
L 356.592872 75.214317 
L 357.134143 73.728313 
L 357.891923 70.82051 
L 358.974465 65.573928 
L 360.598279 57.765052 
L 361.356059 55.209076 
L 361.897331 54.077464 
L 362.330348 53.634449 
L 362.65511 53.574619 
L 362.979873 53.740348 
L 363.41289 54.286378 
L 363.954162 55.417807 
L 364.711942 57.602039 
L 366.877027 64.256828 
L 367.526552 65.48711 
L 368.067824 66.05099 
L 368.500841 66.176319 
L 368.933858 66.009522 
L 369.366875 65.560903 
L 369.908146 64.637876 
L 370.665926 62.793266 
L 372.073232 58.512981 
L 373.155774 55.545732 
L 373.8053 54.315377 
L 374.346571 53.726412 
L 374.779588 53.568496 
L 375.212605 53.690526 
L 375.645622 54.077489 
L 376.186894 54.888177 
L 376.944674 56.479912 
L 379.326268 61.857296 
L 379.975793 62.656065 
L 380.40881 62.916911 
L 380.841827 62.945613 
L 381.274844 62.741181 
L 381.816116 62.173094 
L 382.465641 61.089619 
L 383.331675 59.157843 
L 385.171998 54.911316 
L 385.821524 53.973509 
L 386.254541 53.641822 
L 386.687558 53.578316 
L 387.120575 53.796691 
L 387.553592 54.296263 
L 388.094863 55.291995 
L 388.852643 57.267515 
L 390.04344 61.179976 
L 391.450745 65.682146 
L 392.208525 67.480907 
L 392.858051 68.481453 
L 393.291068 68.833041 
L 393.724085 68.920562 
L 394.157102 68.743719 
L 394.590119 68.310683 
L 395.13139 67.434745 
L 395.88917 65.675703 
L 396.971713 62.441664 
L 398.487273 57.719056 
L 398.487273 57.719056 
" style="fill:none;stroke:#1f77b4;stroke-linecap:square;stroke-width:1.5;"/>
   </g>
   <g id="patch_3">
    <path d="M 57.6 307.584 
L 57.6 41.472 
" style="fill:none;stroke:#000000;stroke-linecap:square;stroke-linejoin:miter;stroke-width:0.8;"/>
   </g>
   <g id="patch_4">
    <path d="M 414.72 307.584 
L 414.72 41.472 
" style="fill:none;stroke:#000000;stroke-linecap:square;stroke-linejoin:miter;stroke-width:0.8;"/>
   </g>
   <g id="patch_5">
    <path d="M 57.6 307.584 
L 414.72 307.584 
" style="fill:none;stroke:#000000;stroke-linecap:square;stroke-linejoin:miter;stroke-width:0.8;"/>
   </g>
   <g id="patch_6">
    <path d="M 57.6 41.472 
L 414.72 41.472 
" style="fill:none;stroke:#000000;stroke-linecap:square;stroke-linejoin:miter;stroke-width:0.8;"/>
   </g>
   <g id="text_18">
    <text style="font-family:DejaVu Sans;font-size:12px;font-style:normal;font-weight:400;text-anchor:middle;" transform="rotate(-0, 236.16, 35.472)" x="236.16" y="35.472">Transmission</text>
   </g>
  </g>
 </g>
 <defs>
  <clipPath id="p1d22da5b71">
   <rect height="266.112" width="357.12" x="57.6" y="41.472"/>
  </clipPath>
 </defs>
</svg>
