<?xml version="1.0" encoding="utf-8" standalone="no"?>
<!DOCTYPE svg PUBLIC "-//W3C//DTD SVG 1.1//EN"
  "http://www.w3.org/Graphics/SVG/1.1/DTD/svg11.dtd">
<!-- Created with matplotlib (http://matplotlib.org/) -->
<svg height="345pt" version="1.1" viewBox="0 0 460 345" width="460pt" xmlns="http://www.w3.org/2000/svg" xmlns:xlink="http://www.w3.org/1999/xlink">
 <defs>
  <style type="text/css">
*{stroke-linecap:butt;stroke-linejoin:round;}
  </style>
 </defs>
 <g id="figure_1">
  <g id="patch_1">
   <path d="M 0 345.6 
L 460.8 345.6 
L 460.8 0 
L 0 0 
z
" style="fill:#ffffff;"/>
  </g>
  <g id="axes_1">
   <g id="patch_2">
    <path d="M 57.6 307.584 
L 414.72 307.584 
L 414.72 41.472 
L 57.6 41.472 
z
" style="fill:#ffffff;"/>
   </g>
   <g id="matplotlib.axis_1">
    <g id="xtick_1">
     <g id="line2d_1">
      <defs>
       <path d="M 0 0 
L 0 3.5 
" id="m4ad6c35c23" style="stroke:#000000;stroke-width:0.8;"/>
      </defs>
      <g>
       <use style="stroke:#000000;stroke-width:0.8;" x="106.298182" xlink:href="#m4ad6c35c23" y="307.584"/>
      </g>
     </g>
     <g id="text_1">
      <text style="font-family:DejaVu Sans;font-size:10px;font-style:normal;font-weight:400;text-anchor:middle;" transform="rotate(-0, 106.298182, 322.182437)" x="106.298182" y="322.182437">19.8</text>
     </g>
    </g>
    <g id="xtick_2">
     <g id="line2d_2">
      <g>
       <use style="stroke:#000000;stroke-width:0.8;" x="171.229091" xlink:href="#m4ad6c35c23" y="307.584"/>
      </g>
     </g>
     <g id="text_2">
      <text style="font-family:DejaVu Sans;font-size:10px;font-style:normal;font-weight:400;text-anchor:middle;" transform="rotate(-0, 171.229091, 322.182437)" x="171.229091" y="322.182437">19.9</text>
     </g>
    </g>
    <g id="xtick_3">
     <g id="line2d_3">
      <g>
       <use style="stroke:#000000;stroke-width:0.8;" x="236.16" xlink:href="#m4ad6c35c23" y="307.584"/>
      </g>
     </g>
     <g id="text_3">
      <text style="font-family:DejaVu Sans;font-size:10px;font-style:normal;font-weight:400;text-anchor:middle;" transform="rotate(-0, 236.16, 322.182437)" x="236.16" y="322.182437">20.0</text>
     </g>
    </g>
    <g id="xtick_4">
     <g id="line2d_4">
      <g>
       <use style="stroke:#000000;stroke-width:0.8;" x="301.090909" xlink:href="#m4ad6c35c23" y="307.584"/>
      </g>
     </g>
     <g id="text_4">
      <text style="font-family:DejaVu Sans;font-size:10px;font-style:normal;font-weight:400;text-anchor:middle;" transform="rotate(-0, 301.090909, 322.182437)" x="301.090909" y="322.182437">20.1</text>
     </g>
    </g>
    <g id="xtick_5">
     <g id="line2d_5">
      <g>
       <use style="stroke:#000000;stroke-width:0.8;" x="366.021818" xlink:href="#m4ad6c35c23" y="307.584"/>
      </g>
     </g>
     <g id="text_5">
      <text style="font-family:DejaVu Sans;font-size:10px;font-style:normal;font-weight:400;text-anchor:middle;" transform="rotate(-0, 366.021818, 322.182437)" x="366.021818" y="322.182437">20.2</text>
     </g>
    </g>
    <g id="text_6">
     <text style="font-family:DejaVu Sans;font-size:10px;font-style:normal;font-weight:400;text-anchor:middle;" transform="rotate(-0, 236.16, 335.860562)" x="236.16" y="335.860562">frequency (MHz)</text>
    </g>
   </g>
   <g id="matplotlib.axis_2">
    <g id="ytick_1">
     <g id="line2d_6">
      <defs>
       <path d="M 0 0 
L -3.5 0 
" id="m7d75003e58" style="stroke:#000000;stroke-width:0.8;"/>
      </defs>
      <g>
       <use style="stroke:#000000;stroke-width:0.8;" x="57.6" xlink:href="#m7d75003e58" y="295.502307"/>
      </g>
     </g>
     <g id="text_7">
      <text style="font-family:DejaVu Sans;font-size:10px;font-style:normal;font-weight:400;text-anchor:end;" transform="rotate(-0, 50.6, 299.301526)" x="50.6" y="299.301526">0.0</text>
     </g>
    </g>
    <g id="ytick_2">
     <g id="line2d_7">
      <g>
       <use style="stroke:#000000;stroke-width:0.8;" x="57.6" xlink:href="#m7d75003e58" y="246.678296"/>
      </g>
     </g>
     <g id="text_8">
      <text style="font-family:DejaVu Sans;font-size:10px;font-style:normal;font-weight:400;text-anchor:end;" transform="rotate(-0, 50.6, 250.477515)" x="50.6" y="250.477515">0.2</text>
     </g>
    </g>
    <g id="ytick_3">
     <g id="line2d_8">
      <g>
       <use style="stroke:#000000;stroke-width:0.8;" x="57.6" xlink:href="#m7d75003e58" y="197.854286"/>
      </g>
     </g>
     <g id="text_9">
      <text style="font-family:DejaVu Sans;font-size:10px;font-style:normal;font-weight:400;text-anchor:end;" transform="rotate(-0, 50.6, 201.653504)" x="50.6" y="201.653504">0.4</text>
     </g>
    </g>
    <g id="ytick_4">
     <g id="line2d_9">
      <g>
       <use style="stroke:#000000;stroke-width:0.8;" x="57.6" xlink:href="#m7d75003e58" y="149.030275"/>
      </g>
     </g>
     <g id="text_10">
      <text style="font-family:DejaVu Sans;font-size:10px;font-style:normal;font-weight:400;text-anchor:end;" transform="rotate(-0, 50.6, 152.829494)" x="50.6" y="152.829494">0.6</text>
     </g>
    </g>
    <g id="ytick_5">
     <g id="line2d_10">
      <g>
       <use style="stroke:#000000;stroke-width:0.8;" x="57.6" xlink:href="#m7d75003e58" y="100.206264"/>
      </g>
     </g>
     <g id="text_11">
      <text style="font-family:DejaVu Sans;font-size:10px;font-style:normal;font-weight:400;text-anchor:end;" transform="rotate(-0, 50.6, 104.005483)" x="50.6" y="104.005483">0.8</text>
     </g>
    </g>
    <g id="ytick_6">
     <g id="line2d_11">
      <g>
       <use style="stroke:#000000;stroke-width:0.8;" x="57.6" xlink:href="#m7d75003e58" y="51.382253"/>
      </g>
     </g>
     <g id="text_12">
      <text style="font-family:DejaVu Sans;font-size:10px;font-style:normal;font-weight:400;text-anchor:end;" transform="rotate(-0, 50.6, 55.181472)" x="50.6" y="55.181472">1.0</text>
     </g>
    </g>
    <g id="text_13">
     <text style="font-family:DejaVu Sans;font-size:10px;font-style:normal;font-weight:400;text-anchor:middle;" transform="rotate(-90, 28.617187, 174.528)" x="28.617187" y="174.528">amplitude^2 (a.u.)</text>
    </g>
   </g>
   <g id="line2d_12">
    <path clip-path="url(#p2cfb553c02)" d="M 73.832727 295.485718 
L 188.560273 295.358764 
L 208.088366 295.146209 
L 217.038742 294.841698 
L 221.920766 294.475419 
L 225.175448 294.030867 
L 227.616459 293.476465 
L 229.2438 292.912878 
L 230.871141 292.07781 
L 231.684812 291.500824 
L 232.498483 290.765737 
L 233.312153 289.809587 
L 234.125824 288.535029 
L 234.939494 286.785428 
L 235.753165 284.29655 
L 236.566835 280.596685 
L 237.380506 274.784517 
L 238.194176 264.993438 
L 239.007847 247.001859 
L 239.821517 210.693235 
L 241.448859 53.568 
L 242.262529 106.924297 
L 243.0762 193.507905 
L 243.88987 238.806191 
L 244.703541 260.783324 
L 245.517211 272.406676 
L 246.330882 279.142059 
L 247.144552 283.348446 
L 247.958223 286.13559 
L 248.771893 288.071253 
L 249.585564 289.467494 
L 250.399234 290.506402 
L 251.212905 291.299653 
L 252.840246 292.410791 
L 254.467587 293.134052 
L 256.094928 293.630643 
L 258.53594 294.12702 
L 261.790622 294.531791 
L 266.672645 294.87086 
L 273.99568 295.122521 
L 287.014409 295.307639 
L 314.679207 295.42559 
L 398.487273 295.483661 
L 398.487273 295.483661 
" style="fill:none;stroke:#1f77b4;stroke-linecap:square;stroke-width:1.5;"/>
   </g>
   <g id="line2d_13">
    <path clip-path="url(#p2cfb553c02)" d="M 73.832727 295.488 
L 188.560273 295.360396 
L 208.088366 295.14743 
L 217.038742 294.842516 
L 221.920766 294.475864 
L 225.175448 294.03094 
L 227.616459 293.476148 
L 229.2438 292.912215 
L 230.871141 292.076703 
L 231.684812 291.499443 
L 232.498483 290.764037 
L 233.312153 289.807512 
L 234.125824 288.532508 
L 234.939494 286.782372 
L 235.753165 284.292846 
L 236.566835 280.592199 
L 237.380506 274.779108 
L 238.194176 264.987043 
L 239.007847 246.994848 
L 239.821517 210.687725 
L 241.448859 53.57206 
L 242.262529 106.916754 
L 243.0762 193.508178 
L 243.88987 238.811703 
L 244.703541 260.790479 
L 245.517211 272.414103 
L 246.330882 279.149303 
L 247.144552 283.355373 
L 247.958223 286.14218 
L 248.771893 288.077523 
L 249.585564 289.473474 
L 250.399234 290.512123 
L 251.212905 291.305143 
L 252.840246 292.415895 
L 254.467587 293.138848 
L 256.094928 293.635188 
L 258.53594 294.13127 
L 261.790622 294.535747 
L 266.672645 294.874511 
L 273.99568 295.125879 
L 287.014409 295.310709 
L 314.679207 295.428399 
L 398.487273 295.486363 
L 398.487273 295.486363 
" style="fill:none;stroke:#ff7f0e;stroke-linecap:square;stroke-width:1.5;"/>
   </g>
   <g id="patch_3">
    <path d="M 57.6 307.584 
L 57.6 41.472 
" style="fill:none;stroke:#000000;stroke-linecap:square;stroke-linejoin:miter;stroke-width:0.8;"/>
   </g>
   <g id="patch_4">
    <path d="M 414.72 307.584 
L 414.72 41.472 
" style="fill:none;stroke:#000000;stroke-linecap:square;stroke-linejoin:miter;stroke-width:0.8;"/>
   </g>
   <g id="patch_5">
    <path d="M 57.6 307.584 
L 414.72 307.584 
" style="fill:none;stroke:#000000;stroke-linecap:square;stroke-linejoin:miter;stroke-width:0.8;"/>
   </g>
   <g id="patch_6">
    <path d="M 57.6 41.472 
L 414.72 41.472 
" style="fill:none;stroke:#000000;stroke-linecap:square;stroke-linejoin:miter;stroke-width:0.8;"/>
   </g>
   <g id="text_14">
    <text style="font-family:DejaVu Sans;font-size:12px;font-style:normal;font-weight:400;" transform="translate(196.53375 22.034625)">Transmission</text>
    <text style="font-family:DejaVu Sans;font-size:12px;font-style:normal;font-weight:400;" transform="translate(137.307187 35.472)">freq = 20.00815MHz Q = 5091.3</text>
   </g>
  </g>
 </g>
 <defs>
  <clipPath id="p2cfb553c02">
   <rect height="266.112" width="357.12" x="57.6" y="41.472"/>
  </clipPath>
 </defs>
</svg>
