<?xml version="1.0" encoding="utf-8" standalone="no"?>
<!DOCTYPE svg PUBLIC "-//W3C//DTD SVG 1.1//EN"
  "http://www.w3.org/Graphics/SVG/1.1/DTD/svg11.dtd">
<!-- Created with matplotlib (http://matplotlib.org/) -->
<svg height="345pt" version="1.1" viewBox="0 0 460 345" width="460pt" xmlns="http://www.w3.org/2000/svg" xmlns:xlink="http://www.w3.org/1999/xlink">
 <defs>
  <style type="text/css">
*{stroke-linecap:butt;stroke-linejoin:round;}
  </style>
 </defs>
 <g id="figure_1">
  <g id="patch_1">
   <path d="M 0 345.6 
L 460.8 345.6 
L 460.8 0 
L 0 0 
z
" style="fill:#ffffff;"/>
  </g>
  <g id="axes_1">
   <g id="patch_2">
    <path d="M 57.6 307.584 
L 414.72 307.584 
L 414.72 41.472 
L 57.6 41.472 
z
" style="fill:#ffffff;"/>
   </g>
   <g id="matplotlib.axis_1">
    <g id="xtick_1">
     <g id="line2d_1">
      <defs>
       <path d="M 0 0 
L 0 3.5 
" id="mc4c2e19289" style="stroke:#000000;stroke-width:0.8;"/>
      </defs>
      <g>
       <use style="stroke:#000000;stroke-width:0.8;" x="106.298182" xlink:href="#mc4c2e19289" y="307.584"/>
      </g>
     </g>
     <g id="text_1">
      <text style="font-family:DejaVu Sans;font-size:10px;font-style:normal;font-weight:400;text-anchor:middle;" transform="rotate(-0, 106.298182, 322.182437)" x="106.298182" y="322.182437">19.8</text>
     </g>
    </g>
    <g id="xtick_2">
     <g id="line2d_2">
      <g>
       <use style="stroke:#000000;stroke-width:0.8;" x="171.229091" xlink:href="#mc4c2e19289" y="307.584"/>
      </g>
     </g>
     <g id="text_2">
      <text style="font-family:DejaVu Sans;font-size:10px;font-style:normal;font-weight:400;text-anchor:middle;" transform="rotate(-0, 171.229091, 322.182437)" x="171.229091" y="322.182437">19.9</text>
     </g>
    </g>
    <g id="xtick_3">
     <g id="line2d_3">
      <g>
       <use style="stroke:#000000;stroke-width:0.8;" x="236.16" xlink:href="#mc4c2e19289" y="307.584"/>
      </g>
     </g>
     <g id="text_3">
      <text style="font-family:DejaVu Sans;font-size:10px;font-style:normal;font-weight:400;text-anchor:middle;" transform="rotate(-0, 236.16, 322.182437)" x="236.16" y="322.182437">20.0</text>
     </g>
    </g>
    <g id="xtick_4">
     <g id="line2d_4">
      <g>
       <use style="stroke:#000000;stroke-width:0.8;" x="301.090909" xlink:href="#mc4c2e19289" y="307.584"/>
      </g>
     </g>
     <g id="text_4">
      <text style="font-family:DejaVu Sans;font-size:10px;font-style:normal;font-weight:400;text-anchor:middle;" transform="rotate(-0, 301.090909, 322.182437)" x="301.090909" y="322.182437">20.1</text>
     </g>
    </g>
    <g id="xtick_5">
     <g id="line2d_5">
      <g>
       <use style="stroke:#000000;stroke-width:0.8;" x="366.021818" xlink:href="#mc4c2e19289" y="307.584"/>
      </g>
     </g>
     <g id="text_5">
      <text style="font-family:DejaVu Sans;font-size:10px;font-style:normal;font-weight:400;text-anchor:middle;" transform="rotate(-0, 366.021818, 322.182437)" x="366.021818" y="322.182437">20.2</text>
     </g>
    </g>
    <g id="text_6">
     <text style="font-family:DejaVu Sans;font-size:10px;font-style:normal;font-weight:400;text-anchor:middle;" transform="rotate(-0, 236.16, 335.860562)" x="236.16" y="335.860562">frequency (MHz)</text>
    </g>
   </g>
   <g id="matplotlib.axis_2">
    <g id="ytick_1">
     <g id="line2d_6">
      <defs>
       <path d="M 0 0 
L -3.5 0 
" id="m4480baab61" style="stroke:#000000;stroke-width:0.8;"/>
      </defs>
      <g>
       <use style="stroke:#000000;stroke-width:0.8;" x="57.6" xlink:href="#m4480baab61" y="270.419463"/>
      </g>
     </g>
     <g id="text_7">
      <text style="font-family:DejaVu Sans;font-size:10px;font-style:normal;font-weight:400;text-anchor:end;" transform="rotate(-0, 50.6, 274.218682)" x="50.6" y="274.218682">−1.0</text>
     </g>
    </g>
    <g id="ytick_2">
     <g id="line2d_7">
      <g>
       <use style="stroke:#000000;stroke-width:0.8;" x="57.6" xlink:href="#m4480baab61" y="226.433417"/>
      </g>
     </g>
     <g id="text_8">
      <text style="font-family:DejaVu Sans;font-size:10px;font-style:normal;font-weight:400;text-anchor:end;" transform="rotate(-0, 50.6, 230.232636)" x="50.6" y="230.232636">−0.5</text>
     </g>
    </g>
    <g id="ytick_3">
     <g id="line2d_8">
      <g>
       <use style="stroke:#000000;stroke-width:0.8;" x="57.6" xlink:href="#m4480baab61" y="182.447371"/>
      </g>
     </g>
     <g id="text_9">
      <text style="font-family:DejaVu Sans;font-size:10px;font-style:normal;font-weight:400;text-anchor:end;" transform="rotate(-0, 50.6, 186.24659)" x="50.6" y="186.24659">0.0</text>
     </g>
    </g>
    <g id="ytick_4">
     <g id="line2d_9">
      <g>
       <use style="stroke:#000000;stroke-width:0.8;" x="57.6" xlink:href="#m4480baab61" y="138.461325"/>
      </g>
     </g>
     <g id="text_10">
      <text style="font-family:DejaVu Sans;font-size:10px;font-style:normal;font-weight:400;text-anchor:end;" transform="rotate(-0, 50.6, 142.260543)" x="50.6" y="142.260543">0.5</text>
     </g>
    </g>
    <g id="ytick_5">
     <g id="line2d_10">
      <g>
       <use style="stroke:#000000;stroke-width:0.8;" x="57.6" xlink:href="#m4480baab61" y="94.475278"/>
      </g>
     </g>
     <g id="text_11">
      <text style="font-family:DejaVu Sans;font-size:10px;font-style:normal;font-weight:400;text-anchor:end;" transform="rotate(-0, 50.6, 98.274497)" x="50.6" y="98.274497">1.0</text>
     </g>
    </g>
    <g id="ytick_6">
     <g id="line2d_11">
      <g>
       <use style="stroke:#000000;stroke-width:0.8;" x="57.6" xlink:href="#m4480baab61" y="50.489232"/>
      </g>
     </g>
     <g id="text_12">
      <text style="font-family:DejaVu Sans;font-size:10px;font-style:normal;font-weight:400;text-anchor:end;" transform="rotate(-0, 50.6, 54.288451)" x="50.6" y="54.288451">1.5</text>
     </g>
    </g>
    <g id="text_13">
     <text style="font-family:DejaVu Sans;font-size:10px;font-style:normal;font-weight:400;text-anchor:middle;" transform="rotate(-90, 20.2375, 174.528)" x="20.2375" y="174.528">phase (rad)</text>
    </g>
   </g>
   <g id="line2d_12">
    <path clip-path="url(#pfe13bec19e)" d="M 73.832727 200.900512 
L 138.1127 243.050483 
L 169.03218 263.078264 
L 186.932932 274.437238 
L 199.13799 281.937951 
L 207.274696 286.705525 
L 212.97039 289.831073 
L 217.852413 292.262049 
L 221.107095 293.669821 
L 223.548107 294.548639 
L 225.989118 295.19707 
L 227.616459 295.442208 
L 229.2438 295.469264 
L 230.871141 295.180271 
L 231.684812 294.869396 
L 232.498483 294.408707 
L 233.312153 293.755133 
L 234.125824 292.847524 
L 234.939494 291.596179 
L 235.753165 289.864312 
L 236.566835 287.433275 
L 237.380506 283.932863 
L 238.194176 278.690305 
L 239.007847 270.37429 
L 239.821517 256.10405 
L 240.635188 229.543011 
L 242.262529 131.244995 
L 243.0762 99.169274 
L 243.88987 82.115572 
L 244.703541 72.43615 
L 245.517211 66.462421 
L 246.330882 62.533256 
L 247.144552 59.83191 
L 247.958223 57.919589 
L 248.771893 56.542162 
L 249.585564 55.543157 
L 250.399234 54.821301 
L 251.212905 54.308295 
L 252.026576 53.956474 
L 253.653917 53.608424 
L 255.281258 53.595773 
L 256.908599 53.812951 
L 259.34961 54.432757 
L 261.790622 55.292556 
L 265.045304 56.683509 
L 269.113657 58.676395 
L 274.809351 61.755528 
L 282.132386 66.001523 
L 291.896432 71.937918 
L 305.728831 80.626324 
L 326.070595 93.686879 
L 357.803746 114.348479 
L 398.487273 141.035196 
L 398.487273 141.035196 
" style="fill:none;stroke:#1f77b4;stroke-linecap:square;stroke-width:1.5;"/>
   </g>
   <g id="patch_3">
    <path d="M 57.6 307.584 
L 57.6 41.472 
" style="fill:none;stroke:#000000;stroke-linecap:square;stroke-linejoin:miter;stroke-width:0.8;"/>
   </g>
   <g id="patch_4">
    <path d="M 414.72 307.584 
L 414.72 41.472 
" style="fill:none;stroke:#000000;stroke-linecap:square;stroke-linejoin:miter;stroke-width:0.8;"/>
   </g>
   <g id="patch_5">
    <path d="M 57.6 307.584 
L 414.72 307.584 
" style="fill:none;stroke:#000000;stroke-linecap:square;stroke-linejoin:miter;stroke-width:0.8;"/>
   </g>
   <g id="patch_6">
    <path d="M 57.6 41.472 
L 414.72 41.472 
" style="fill:none;stroke:#000000;stroke-linecap:square;stroke-linejoin:miter;stroke-width:0.8;"/>
   </g>
   <g id="text_14">
    <text style="font-family:DejaVu Sans;font-size:12px;font-style:normal;font-weight:400;" transform="translate(140.056875 22.034625)">Phase (transmission coefficient)</text>
    <text style="font-family:DejaVu Sans;font-size:12px;font-style:normal;font-weight:400;" transform="translate(236.16 35.472)"/>
   </g>
  </g>
 </g>
 <defs>
  <clipPath id="pfe13bec19e">
   <rect height="266.112" width="357.12" x="57.6" y="41.472"/>
  </clipPath>
 </defs>
</svg>
